[Header]
# KeyWord<space>Value<CR>FileType htr
DataType HTRS
FileVersion 1.0
NumSegments 32
NumFrames 5
DataFrameRate 24
EulerRotationOrder XYZ
CalibrationUnits m
RotationUnits Degrees
GlobalAxisofGravity Z
BoneLengthAxis Z
BoneLengthAxis Z
ScaleFactor 1.00
[SegmentNames&Hierarchy]
# ObjectName<tab>ParentObjectName<CR>
pelvis	GLOBAL
spine01	pelvis
spine02	spine01
spine03	spine02
neck	spine03
head	neck
Collar_left	spine03
shoulder_up_left	Collar_left
bicep_up_left	shoulder_up_left
forearm_up_left	bicep_up_left
hand_up_left	forearm_up_left
shoulder_down_left	Collar_left
bicep_down_left	shoulder_down_left
forearm_down_left	bicep_down_left
hand_down_left	forearm_down_left
Collar_right	spine03
shoulder_up_right	Collar_right
bicep_up_right	shoulder_up_right
forearm_up_right	bicep_up_right
hand_up_right	forearm_up_right
shoulder_down_right	Collar_right
bicep_down_right	shoulder_down_right
forearm_down_right	bicep_down_right
hand_down_right	forearm_down_right
hip_left	pelvis
thigh_left	hip_left
shin_left	thigh_left
foot_left	shin_left
hip_right	pelvis
thigh_right	hip_right
shin_right	thigh_right
foot_right	shin_right
[BasePosition]
# ObjectName<tab>Tx<tab>Ty<tab>Tz<tab>Rx<tab>Ry<tab>Rz<tab>BoneLength<CR>
pelvis	0.000000	-0.438872	6.292977	90.000003	-0.000000	0.000000	1.000000
spine01	0.000000	-0.438872	7.970248	90.000003	-0.000000	0.000000	1.000000
spine02	0.000000	-0.438872	10.340697	90.000003	-0.000000	0.000000	1.000000
spine03	0.000000	-0.438872	13.021563	90.000003	-0.000000	0.000000	1.000000
neck	0.000000	-0.438872	16.182161	90.000003	-0.000000	0.000000	1.000000
head	0.000000	-0.438872	17.452044	90.000003	-0.000000	0.000014	1.000000
Collar_left	0.000000	-0.438872	16.182161	114.324943	-109.283163	-3.448282	1.000000
shoulder_up_left	-2.246972	-1.353188	15.416688	89.999955	-101.168646	0.000051	1.000000
bicep_up_left	-4.544489	-1.353188	14.963074	94.597615	-95.170613	-0.305692	1.000000
forearm_up_left	-8.587797	-1.657960	14.597347	85.600206	-93.126604	-0.279561	1.000000
hand_up_left	-12.306015	-1.353188	14.394166	85.300436	-97.657908	-0.750653	1.000000
shoulder_down_left	-2.246972	-1.353188	15.416688	97.171845	-144.053812	-0.627842	1.000000
bicep_down_left	-4.260035	-1.761673	12.646806	95.982825	-137.161086	0.000016	1.000000
forearm_down_left	-6.332484	-2.081106	10.411811	78.293864	-138.751741	0.000033	1.000000
hand_down_left	-8.648752	-1.353187	7.770453	89.999989	-141.340205	0.000017	1.000000
Collar_right	0.000000	-0.438872	16.182161	114.324943	109.283163	3.448282	1.000000
shoulder_up_right	2.246972	-1.353188	15.416688	89.999955	101.168646	-0.000051	1.000000
bicep_up_right	4.544489	-1.353188	14.963074	94.597615	95.170613	0.305692	1.000000
forearm_up_right	8.587797	-1.657960	14.597347	85.600206	93.126604	0.279561	1.000000
hand_up_right	12.306015	-1.353188	14.394166	85.300436	97.657908	0.750653	1.000000
shoulder_down_right	2.246972	-1.353188	15.416688	97.171845	144.053812	0.627842	1.000000
bicep_down_right	4.260035	-1.761673	12.646806	95.982825	137.161086	-0.000016	1.000000
forearm_down_right	6.332484	-2.081106	10.411811	78.293864	138.751741	-0.000033	1.000000
hand_down_right	8.648752	-1.353187	7.770453	89.999989	141.340205	-0.000017	1.000000
hip_left	0.000000	-0.438872	6.292977	-6.241914	-0.000005	89.999996	1.000000
thigh_left	-2.600721	-0.438872	6.008523	-79.303489	-0.000003	90.000003	1.000000
shin_left	-3.000499	-0.438872	3.892051	-90.969439	1.681318	89.968611	1.000000
foot_left	-2.953466	-0.520526	1.111133	-93.081914	-75.718200	93.179995	1.000000
hip_right	0.000000	-0.438872	6.292977	-6.241914	0.000005	-89.999996	1.000000
thigh_right	2.600721	-0.438872	6.008523	-79.303489	0.000003	-90.000003	1.000000
shin_right	3.000499	-0.438872	3.892051	-90.969439	-1.681318	-89.968611	1.000000
foot_right	2.953466	-0.520526	1.111133	-93.081914	75.718200	-93.179995	1.000000
[pelvis]
# Tx<tab>Ty<tab>Tz<tab>Rx<tab>Ry<tab>Rz<tab>BoneScaleFactor<CR>
7	0.000000	0.000000	0.000000	0.000000	-0.000000	0.000000	1.000000
8	0.000000	0.000000	0.000000	0.000000	-0.000000	0.000000	1.000000
9	0.000000	0.000000	0.000000	0.000000	-0.000000	0.000000	1.000000
10	0.000000	0.000000	0.000000	0.000000	-0.000000	0.000000	1.000000
11	0.000000	0.000000	0.000000	0.000000	-0.000000	0.000000	1.000000
[spine01]
# Tx<tab>Ty<tab>Tz<tab>Rx<tab>Ry<tab>Rz<tab>BoneScaleFactor<CR>
7	0.000000	0.000000	0.000000	-1.789914	-0.000000	0.000000	1.000000
8	0.000000	0.000000	0.000000	-2.372011	-0.000000	0.000000	1.000000
9	0.000000	0.000000	0.000000	-3.014186	-0.000000	0.000000	1.000000
10	0.000000	0.000000	0.000000	-3.708518	-0.000000	0.000000	1.000000
11	0.000000	0.000000	0.000000	-4.447057	-0.000000	0.000000	1.000000
[spine02]
# Tx<tab>Ty<tab>Tz<tab>Rx<tab>Ry<tab>Rz<tab>BoneScaleFactor<CR>
7	0.000000	0.000000	0.000000	-2.193569	-0.000000	0.000000	1.000000
8	0.000000	0.000000	0.000000	-2.907376	-0.000000	0.000000	1.000000
9	0.000000	0.000000	-0.000000	-3.695068	-0.000000	0.000000	1.000000
10	0.000000	0.000000	0.000000	-4.546959	-0.000000	0.000000	1.000000
11	0.000000	0.000000	0.000000	-5.453308	-0.000000	0.000000	1.000000
[spine03]
# Tx<tab>Ty<tab>Tz<tab>Rx<tab>Ry<tab>Rz<tab>BoneScaleFactor<CR>
7	0.000000	0.000000	0.000000	-1.697356	-0.000000	0.000000	1.000000
8	0.000000	0.000000	0.000000	-2.249285	-0.000000	0.000000	1.000000
9	0.000000	0.000000	-0.000000	-2.858146	-0.000000	0.000000	1.000000
10	0.000000	0.000001	0.000000	-3.516425	-0.000000	0.000000	1.000000
11	0.000000	0.000000	0.000000	-4.216576	-0.000000	0.000000	1.000000
[neck]
# Tx<tab>Ty<tab>Tz<tab>Rx<tab>Ry<tab>Rz<tab>BoneScaleFactor<CR>
7	0.000000	0.000000	-0.000000	-0.000000	-0.000000	0.000000	1.000000
8	0.000000	0.000000	0.000000	0.000000	-0.000000	0.000000	1.000000
9	0.000000	0.000000	0.000000	0.000000	-0.000000	0.000000	1.000000
10	0.000000	0.000000	-0.000000	0.000000	-0.000000	0.000000	1.000000
11	0.000000	0.000000	0.000000	0.000000	-0.000000	0.000000	1.000000
[head]
# Tx<tab>Ty<tab>Tz<tab>Rx<tab>Ry<tab>Rz<tab>BoneScaleFactor<CR>
7	0.000000	0.000000	0.000000	-0.289010	0.000000	0.000000	1.000000
8	0.000000	-0.000002	0.000000	-0.382887	-0.000000	0.000000	1.000000
9	0.000000	0.000000	0.000000	-0.486402	0.000000	0.000000	1.000000
10	0.000000	0.000000	0.000000	-0.598265	-0.000000	0.000000	1.000000
11	0.000000	0.000002	0.000000	-0.717196	0.000000	0.000000	1.000000
[Collar_left]
# Tx<tab>Ty<tab>Tz<tab>Rx<tab>Ry<tab>Rz<tab>BoneScaleFactor<CR>
7	0.000000	0.000000	0.000000	0.000000	-0.000000	0.000001	1.000000
8	0.000000	-0.000000	0.000000	0.000001	-0.000001	-0.000001	1.000000
9	0.000000	0.000000	0.000000	-0.000003	-0.000000	-0.000002	1.000000
10	0.000001	-0.000000	-0.000000	-0.000002	-0.000000	-0.000002	1.000000
11	-0.000001	0.000001	0.000000	-0.000002	-0.000000	0.000001	1.000000
[shoulder_up_left]
# Tx<tab>Ty<tab>Tz<tab>Rx<tab>Ry<tab>Rz<tab>BoneScaleFactor<CR>
7	-0.000001	0.000000	0.000000	-0.000000	-0.000000	-4.188191	1.000000
8	0.000000	0.000000	0.000000	-0.000000	-0.000000	-5.557837	1.000000
9	0.000000	-0.000000	0.000000	0.000000	-0.000001	-7.072568	1.000000
10	-0.000001	0.000000	0.000000	-0.000000	0.000001	-8.714243	1.000000
11	0.000000	0.000000	0.000000	0.000000	-0.000001	-10.464319	1.000000
[bicep_up_left]
# Tx<tab>Ty<tab>Tz<tab>Rx<tab>Ry<tab>Rz<tab>BoneScaleFactor<CR>
7	0.000000	0.000000	0.000000	0.000000	-0.000000	0.000000	1.000000
8	0.000002	0.000000	0.000000	0.000000	-0.000000	0.000000	1.000000
9	0.000000	0.000000	0.000000	-0.000000	-0.000000	-0.000000	1.000000
10	0.000001	0.000000	0.000000	0.000000	-0.000000	0.000000	1.000000
11	-0.000001	0.000000	-0.000000	-0.000000	-0.000000	0.000000	1.000000
[forearm_up_left]
# Tx<tab>Ty<tab>Tz<tab>Rx<tab>Ry<tab>Rz<tab>BoneScaleFactor<CR>
7	0.000000	-0.000001	0.000000	0.000000	-0.000000	0.000000	1.000000
8	0.000001	0.000000	-0.000000	0.000000	-0.000002	0.000000	1.000000
9	0.000000	0.000000	-0.000000	-0.000000	-0.000000	0.000000	1.000000
10	-0.000001	0.000000	0.000000	0.000000	-0.000001	0.000000	1.000000
11	0.000000	0.000000	0.000000	-0.000000	-0.000001	0.000000	1.000000
[hand_up_left]
# Tx<tab>Ty<tab>Tz<tab>Rx<tab>Ry<tab>Rz<tab>BoneScaleFactor<CR>
7	-0.000001	0.000000	-0.000000	-0.324491	-4.320442	-0.786447	1.000000
8	-0.000001	-0.000001	0.000000	-0.418165	-5.735303	-1.039512	1.000000
9	0.000000	0.000000	-0.000000	-0.514764	-7.301009	-1.317594	1.000000
10	0.000000	0.000000	0.000000	-0.611230	-8.998984	-1.617295	1.000000
11	-0.000001	-0.000001	0.000000	-0.704687	-10.810139	-1.935390	1.000000
[shoulder_down_left]
# Tx<tab>Ty<tab>Tz<tab>Rx<tab>Ry<tab>Rz<tab>BoneScaleFactor<CR>
7	0.000002	0.000000	0.000000	0.000001	0.000000	0.000002	1.000000
8	0.000001	0.000000	0.000000	0.000000	-0.000000	0.000000	1.000000
9	-0.000001	-0.000001	0.000000	0.000000	-0.000001	0.000002	1.000000
10	0.000001	0.000000	0.000000	0.000001	-0.000000	0.000000	1.000000
11	0.000001	0.000000	0.000000	0.000000	-0.000000	-0.000002	1.000000
[bicep_down_left]
# Tx<tab>Ty<tab>Tz<tab>Rx<tab>Ry<tab>Rz<tab>BoneScaleFactor<CR>
7	0.000000	0.000001	-0.000000	-3.869909	-3.538493	0.492276	1.000000
8	0.000000	0.000002	0.000000	-5.150631	-4.692130	0.706503	1.000000
9	0.000000	0.000000	0.000000	-6.577441	-5.964321	0.974512	1.000000
10	-0.000001	0.000000	0.000000	-8.137527	-7.337542	1.302348	1.000000
11	0.000000	0.000000	0.000000	-9.817947	-8.793416	1.695250	1.000000
[forearm_down_left]
# Tx<tab>Ty<tab>Tz<tab>Rx<tab>Ry<tab>Rz<tab>BoneScaleFactor<CR>
7	0.000000	-0.000000	-0.000000	-2.812248	-2.433880	-0.442375	1.000000
8	-0.000001	0.000000	0.000000	-3.727747	-3.233083	-0.561044	1.000000
9	0.000000	0.000000	0.000000	-4.738636	-4.118483	-0.677424	1.000000
10	0.000000	0.000000	0.000000	-5.832980	-5.079668	-0.785933	1.000000
11	-0.000001	-0.000001	0.000000	-6.998919	-6.105828	-0.881398	1.000000
[hand_down_left]
# Tx<tab>Ty<tab>Tz<tab>Rx<tab>Ry<tab>Rz<tab>BoneScaleFactor<CR>
7	0.000000	0.000001	0.000000	0.000000	-0.000000	0.000003	1.000000
8	0.000001	0.000000	-0.000000	0.000000	-0.000000	0.000002	1.000000
9	0.000001	0.000000	-0.000000	0.000000	-0.000000	-0.000005	1.000000
10	-0.000001	-0.000000	0.000000	0.000000	-0.000000	0.000002	1.000000
11	-0.000001	0.000000	-0.000000	0.000000	0.000000	0.000003	1.000000
[Collar_right]
# Tx<tab>Ty<tab>Tz<tab>Rx<tab>Ry<tab>Rz<tab>BoneScaleFactor<CR>
7	0.000000	0.000000	0.000000	0.000000	-0.000000	-0.000001	1.000000
8	0.000000	-0.000000	0.000000	0.000001	0.000001	0.000001	1.000000
9	0.000000	0.000000	0.000000	-0.000003	-0.000000	0.000002	1.000000
10	-0.000001	-0.000000	-0.000000	-0.000002	-0.000000	0.000002	1.000000
11	0.000001	0.000001	0.000000	-0.000002	-0.000000	-0.000001	1.000000
[shoulder_up_right]
# Tx<tab>Ty<tab>Tz<tab>Rx<tab>Ry<tab>Rz<tab>BoneScaleFactor<CR>
7	0.000001	0.000000	0.000000	0.616979	0.141853	4.688618	1.000000
8	0.000000	0.000000	0.000000	0.821414	0.177295	6.225186	1.000000
9	0.000000	-0.000000	0.000000	1.048715	0.210117	7.926119	1.000000
10	0.000001	0.000000	0.000000	1.296255	0.238073	9.771280	1.000000
11	0.000000	0.000000	0.000000	1.561191	0.259096	11.739931	1.000000
[bicep_up_right]
# Tx<tab>Ty<tab>Tz<tab>Rx<tab>Ry<tab>Rz<tab>BoneScaleFactor<CR>
7	0.000000	0.000000	0.000000	-0.000000	-0.000000	0.000000	1.000000
8	0.000000	0.000000	0.000000	0.000000	-0.000000	-0.000000	1.000000
9	0.000000	-0.000000	0.000000	0.000000	-0.000000	-0.000000	1.000000
10	0.000000	0.000000	-0.000000	0.000000	-0.000001	0.000000	1.000000
11	0.000001	0.000000	0.000000	-0.000000	-0.000001	0.000000	1.000000
[forearm_up_right]
# Tx<tab>Ty<tab>Tz<tab>Rx<tab>Ry<tab>Rz<tab>BoneScaleFactor<CR>
7	0.000001	0.000001	0.000000	-3.423795	-2.741497	2.458140	1.000000
8	0.000001	0.000000	0.000000	-4.573797	-3.607784	3.300855	1.000000
9	0.000000	0.000001	0.000000	-5.863475	-4.547038	4.255245	1.000000
10	0.000000	0.000002	0.000000	-7.282679	-5.541602	5.316227	1.000000
11	-0.000001	0.000000	-0.000000	-8.820410	-6.573642	6.477713	1.000000
[hand_up_right]
# Tx<tab>Ty<tab>Tz<tab>Rx<tab>Ry<tab>Rz<tab>BoneScaleFactor<CR>
7	0.000001	0.000000	0.000000	0.341461	6.088602	0.418817	1.000000
8	0.000000	0.000001	0.000000	0.464780	8.095338	0.566024	1.000000
9	0.000000	0.000000	0.000000	0.608615	10.322306	0.735538	1.000000
10	0.000000	0.000000	0.000000	0.774030	12.743971	0.927953	1.000000
11	-0.000001	0.000000	0.000000	0.962230	15.333443	1.144041	1.000000
[shoulder_down_right]
# Tx<tab>Ty<tab>Tz<tab>Rx<tab>Ry<tab>Rz<tab>BoneScaleFactor<CR>
7	-0.000002	0.000000	0.000000	0.000001	-0.000000	-0.000002	1.000000
8	-0.000001	0.000000	0.000000	0.000000	-0.000000	0.000000	1.000000
9	0.000001	-0.000001	0.000000	0.000000	0.000001	-0.000002	1.000000
10	-0.000001	0.000000	0.000000	0.000001	-0.000000	0.000000	1.000000
11	-0.000001	0.000000	0.000000	0.000000	-0.000000	0.000002	1.000000
[bicep_down_right]
# Tx<tab>Ty<tab>Tz<tab>Rx<tab>Ry<tab>Rz<tab>BoneScaleFactor<CR>
7	0.000000	0.000001	-0.000000	-3.869909	3.538493	-0.492276	1.000000
8	0.000000	0.000002	0.000000	-5.150631	4.692130	-0.706503	1.000000
9	0.000000	0.000000	0.000000	-6.577441	5.964321	-0.974512	1.000000
10	0.000001	0.000000	0.000000	-8.137527	7.337542	-1.302348	1.000000
11	0.000000	0.000000	0.000000	-9.817947	8.793416	-1.695250	1.000000
[forearm_down_right]
# Tx<tab>Ty<tab>Tz<tab>Rx<tab>Ry<tab>Rz<tab>BoneScaleFactor<CR>
7	0.000000	-0.000000	-0.000000	-2.812248	2.433880	0.442375	1.000000
8	0.000001	0.000000	0.000000	-3.727747	3.233083	0.561044	1.000000
9	0.000000	0.000000	0.000000	-4.738636	4.118483	0.677424	1.000000
10	0.000000	0.000000	0.000000	-5.832980	5.079668	0.785933	1.000000
11	0.000001	-0.000001	0.000000	-6.998919	6.105828	0.881398	1.000000
[hand_down_right]
# Tx<tab>Ty<tab>Tz<tab>Rx<tab>Ry<tab>Rz<tab>BoneScaleFactor<CR>
7	0.000000	0.000001	0.000000	0.000000	-0.000000	-0.000003	1.000000
8	-0.000001	0.000000	-0.000000	0.000000	-0.000000	-0.000002	1.000000
9	-0.000001	0.000000	-0.000000	0.000000	-0.000000	0.000005	1.000000
10	0.000001	-0.000000	0.000000	0.000000	-0.000000	-0.000002	1.000000
11	0.000001	0.000000	-0.000000	0.000000	-0.000000	-0.000003	1.000000
[hip_left]
# Tx<tab>Ty<tab>Tz<tab>Rx<tab>Ry<tab>Rz<tab>BoneScaleFactor<CR>
7	0.000000	-0.000000	0.000000	0.000000	-0.000000	-0.000000	1.000000
8	0.000000	-0.000000	0.000000	0.000000	-0.000000	-0.000000	1.000000
9	0.000000	-0.000000	0.000000	0.000000	-0.000000	-0.000000	1.000000
10	0.000000	-0.000000	0.000000	0.000000	-0.000000	-0.000000	1.000000
11	0.000000	-0.000000	0.000000	0.000000	-0.000000	-0.000000	1.000000
[thigh_left]
# Tx<tab>Ty<tab>Tz<tab>Rx<tab>Ry<tab>Rz<tab>BoneScaleFactor<CR>
7	0.000000	-0.000000	0.000000	0.000001	-0.000000	0.000000	1.000000
8	0.000000	-0.000000	0.000000	0.000001	-0.000000	0.000000	1.000000
9	0.000000	-0.000000	0.000000	0.000001	-0.000000	0.000000	1.000000
10	0.000000	-0.000000	0.000000	0.000001	-0.000000	0.000000	1.000000
11	0.000000	-0.000000	0.000000	0.000001	-0.000000	0.000000	1.000000
[shin_left]
# Tx<tab>Ty<tab>Tz<tab>Rx<tab>Ry<tab>Rz<tab>BoneScaleFactor<CR>
7	0.000000	-0.000000	0.000000	0.000000	0.000000	-0.000000	1.000000
8	0.000000	-0.000000	0.000000	0.000000	0.000000	-0.000000	1.000000
9	0.000000	-0.000000	0.000000	0.000000	0.000000	-0.000000	1.000000
10	0.000000	-0.000000	0.000000	0.000000	0.000000	-0.000000	1.000000
11	0.000000	-0.000000	0.000000	0.000000	0.000000	-0.000000	1.000000
[foot_left]
# Tx<tab>Ty<tab>Tz<tab>Rx<tab>Ry<tab>Rz<tab>BoneScaleFactor<CR>
7	0.000000	-0.000000	0.000000	-0.000000	-0.000000	0.000000	1.000000
8	0.000000	-0.000000	0.000000	-0.000000	-0.000000	0.000000	1.000000
9	0.000000	-0.000000	0.000000	-0.000000	-0.000000	0.000000	1.000000
10	0.000000	-0.000000	0.000000	-0.000000	-0.000000	0.000000	1.000000
11	0.000000	-0.000000	0.000000	-0.000000	-0.000000	0.000000	1.000000
[hip_right]
# Tx<tab>Ty<tab>Tz<tab>Rx<tab>Ry<tab>Rz<tab>BoneScaleFactor<CR>
7	-0.000000	-0.000000	0.000000	0.000000	0.000000	0.000000	1.000000
8	-0.000000	-0.000000	0.000000	0.000000	0.000000	0.000000	1.000000
9	-0.000000	-0.000000	0.000000	0.000000	0.000000	0.000000	1.000000
10	-0.000000	-0.000000	0.000000	0.000000	0.000000	0.000000	1.000000
11	-0.000000	-0.000000	0.000000	0.000000	0.000000	0.000000	1.000000
[thigh_right]
# Tx<tab>Ty<tab>Tz<tab>Rx<tab>Ry<tab>Rz<tab>BoneScaleFactor<CR>
7	-0.000000	-0.000000	0.000000	0.000001	0.000000	-0.000000	1.000000
8	-0.000000	-0.000000	0.000000	0.000001	0.000000	-0.000000	1.000000
9	-0.000000	-0.000000	0.000000	0.000001	0.000000	-0.000000	1.000000
10	-0.000000	-0.000000	0.000000	0.000001	0.000000	-0.000000	1.000000
11	-0.000000	-0.000000	0.000000	0.000001	0.000000	-0.000000	1.000000
[shin_right]
# Tx<tab>Ty<tab>Tz<tab>Rx<tab>Ry<tab>Rz<tab>BoneScaleFactor<CR>
7	0.000000	-0.000000	0.000000	0.000000	-0.000000	0.000000	1.000000
8	0.000000	-0.000000	0.000000	0.000000	-0.000000	0.000000	1.000000
9	0.000000	-0.000000	0.000000	0.000000	-0.000000	0.000000	1.000000
10	0.000000	-0.000000	0.000000	0.000000	-0.000000	0.000000	1.000000
11	0.000000	-0.000000	0.000000	0.000000	-0.000000	0.000000	1.000000
[foot_right]
# Tx<tab>Ty<tab>Tz<tab>Rx<tab>Ry<tab>Rz<tab>BoneScaleFactor<CR>
7	-0.000000	-0.000000	0.000000	-0.000000	-0.000000	0.000000	1.000000
8	-0.000000	-0.000000	0.000000	-0.000000	-0.000000	0.000000	1.000000
9	-0.000000	-0.000000	0.000000	-0.000000	-0.000000	0.000000	1.000000
10	-0.000000	-0.000000	0.000000	-0.000000	-0.000000	0.000000	1.000000
11	-0.000000	-0.000000	0.000000	-0.000000	-0.000000	0.000000	1.000000
[EndOfFile]
